<svg fill="#fff" height="512pt" viewBox="-9 0 512 512.0001" width="512pt" xmlns="http://www.w3.org/2000/svg"><path d="m492.242188 420.765625c-5.691407-21.53125-23.53125-35.878906-41.316407-48.726563-3.355469-2.425781-8.046875-1.671874-10.472656 1.6875-2.425781 3.359376-1.667969 8.046876 1.6875 10.472657 16.230469 11.726562 31.167969 23.640625 35.597656 40.398437 6.1875 23.398438-12.074219 48.328125-33.296875 58.914063-25.011718 12.472656-43.070312 12.546875-160.542968 13.03125-23.195313.097656-49.488282.203125-80.574219.429687-28.253907.207032-44.386719-.316406-60.523438-4.550781 13.210938-25.007813 39.566407-43.183594 67.714844-46.085937 12.800781-1.316407 26.769531.117187 40.585937-3.800782 15.523438-4.398437 30.59375-17.945312 29.375-35.320312-1.132812-16.109375-15.878906-26.878906-16.226562-37.726563-.234375-7.34375 6.414062-13.636719 12.6875-16.375 10.742188-4.683593 14.746094-3.675781 123.710938-5.234375 3.625 5.257813 8.546874 10.789063 15.183593 16.519532 3.148438 2.71875 7.882813 2.34375 10.578125-.777344 2.703125-3.136719 2.355469-7.871094-.777344-10.578125-12.386718-10.691407-20.867187-22.285157-19.375-38.5.914063-9.863281 6.726563-20.585938 5.402344-33.082031-2.367187-22.355469-20.113281-32.644532-42.363281-36.457032h6.6875c3.140625 0 6.085937-1.386718 8.089844-3.800781 2-2.410156 2.816406-5.558594 2.238281-8.636719l-41.800781-222.601562c-1.101563-5.867188-6.042969-9.964844-12.015625-9.964844s-10.917969 4.097656-12.019532 9.964844l-41.796874 222.597656c-.578126 3.078125.234374 6.226562 2.238281 8.640625 4.519531 5.445313 10.519531 3.320313 14.992187 3.796875-11.003906.644531-31.066406 1.039062-57.042968 3.222656-4.128907.347656-7.191407 3.972656-6.84375 8.101563.328124 3.914062 3.605468 6.871093 7.464843 6.871093 1.71875 0 16.164063-1.601562 49.203125-2.820312 6.390625-.238281 13.847656-.761719 21.304688-1.234375v37.359375h-29.078125c-4.140625 0-7.5 3.359375-7.5 7.5s3.359375 7.5 7.5 7.5h79.996093c4.144532 0 7.5-3.359375 7.5-7.5s-3.355468-7.5-7.5-7.5h-5.921874v-38.105469c35.167968 2.59375 40.746093 15.148438 41.75 24.644531.929687 8.769532-4.363282 18.742188-5.421876 30.121094-.5 5.417969-.496093 12.140625 1.910157 19.820313-102.945313 1.476562-108.359375.304687-122.289063 6.382812-11.125 4.855469-22.144531 16.199219-21.683594 30.605469.523438 16.4375 15.476563 27.210938 16.253907 38.296875.628906 8.953125-8.914063 17.117187-18.5 19.835937-11.539063 3.273438-24.628907 1.929688-38.035157 3.3125-33.851562 3.488282-65.496093 25.804688-80.601562 56.273438-14.21875-5.515625-30.863281-14.175781-56.824219-27.683594-34.558593-17.980468-48.121093-23.308594-54.089843-35.199218-6.230469-12.410157.328124-28.433594 9.671874-37.214844 4.796876-4.515625 10.699219-8.226563 18.1875-11.394532v13.835938h-6.261718c-4.140625 0-7.5 3.355469-7.5 7.5 0 4.140625 3.359375 7.5 7.5 7.5h93.730468c4.140626 0 7.5-3.359375 7.5-7.5 0-4.144531-3.355468-7.5-7.5-7.5h-42.46875v-25.929688c21.464844-4.996093 47.75-13.101562 56.648438-41.140624 2.054688-6.476563 2.769531-12.648438 3.398438-18.097657 1.074218-9.300781 1.851562-16.019531 8.097656-21.730469 7.921875-7.238281 24.34375-12.617187 50.207031-16.441406 4.09375-.601562 6.925781-4.417968 6.320313-8.515625-.605469-4.097656-4.421876-6.921875-8.515626-6.320312-29.71875 4.390625-47.648437 10.625-58.128906 20.207031-10.382812 9.488281-11.652344 20.464844-12.878906 31.078125-.578125 5.007813-1.179688 10.1875-2.796875 15.28125-5.773437 18.195313-21.628906 25.027344-42.351563 30.222656v-15.101562h20.992188c6.910156 0 11.824219-5.851563 10.203125-11.9375l-41.800781-156.785157c-1.320313-4.949218-6.097656-8.277343-11.890625-8.277343h-.003907c-5.792968 0-10.570312 3.324219-11.890624 8.277343l-6.558594 24.59375c-1.066406 4.003907 1.3125 8.113282 5.316406 9.179688 3.996094 1.066406 8.109375-1.3125 9.175781-5.3125l3.957031-14.84375 37.351563 140.101562h-74.703125l25.058594-93.988281c1.066406-4.003906-1.3125-8.113281-5.316406-9.179687-3.996094-1.066406-8.109376 1.3125-9.175782 5.3125l-26.90625 100.925781c-1.621094 6.082031 3.285156 11.933594 10.203125 11.933594h20.988281v26.5625c-11.957031 4.292969-21.089843 9.621093-28.460937 16.558593-14.75 13.859376-21.949219 36.65625-12.800781 54.871094 8.367187 16.675782 23.777344 22.636719 60.570312 41.777344 66.511719 34.605469 75.074219 39.113281 138.804688 38.660156 31.0625-.226562 57.339844-.335937 80.523437-.429687 117.804688-.488281 139.03125-.574219 167.175781-14.609375 26.230469-13.078125 49.554688-44.21875 41.109376-76.167969zm-159.746094-393.523437 38.074218 202.757812h-76.148437zm-7.5 269.257812v-51.5h14.996094v51.5zm-249.675782 37.042969v56.488281h-15v-56.488281zm0 0"></path></svg>