<svg fill="#00815E" height="512pt" viewBox="0 -34 512.09065 512" width="512pt" xmlns="http://www.w3.org/2000/svg"><path d="m509.558594 360.347656c-6.628906-17.203125-25.019532-27.304687-48.109375-27.304687-22.527344 0-38.179688-10.242188-40.636719-20.378907-1.707031-7.101562 4.34375-11.863281 9.738281-14.601562 6.140625-3.011719 12.527344-5.503906 19.085938-7.449219 8.28125-2.253906 16.167969-5.765625 23.382812-10.410156 16.425781-11.09375 23.585938-22.621094 21.265625-34.234375-4.0625-20.3125-34.988281-34.519531-106.605468-49.035156-60.445313-9.941406-121.9375-11.84375-182.878907-5.664063v-48.964843l100.207031-41.078126c6.46875-2.585937 10.714844-8.84375 10.730469-15.8125.015625-6.964843-4.207031-13.242187-10.664062-15.855468l-100.273438-41.105469v-2.808594c0-14.136719-11.460937-25.597656-25.601562-25.597656-14.136719 0-25.597657 11.460937-25.597657 25.597656v173.371094c-100.449218 20.257813-153.601562 66.417969-153.601562 134 0 50.527344 45.140625 110.761719 260.191406 110.761719 140.933594 0 217.675782-24.121094 240.542969-44.765625 10.75-9.769531 14.269531-25.199219 8.824219-38.664063zm-304.757813-66.421875c15.25 4.640625 25.597657 13.097657 25.597657 21.851563 0 8.757812-10.339844 17.203125-25.597657 21.855468zm93.796875-208.546875-93.796875 38.476563v-76.945313zm-119.398437-68.265625c4.714843 0 8.535156 3.820313 8.535156 8.53125v315.316407c-5.679687.519531-11.390625.519531-17.066406 0v-315.316407c0-4.710937 3.820312-8.53125 8.53125-8.53125zm-25.597657 320.519531c-15.25-4.640624-25.601562-13.097656-25.601562-21.855468 0-8.753906 10.351562-17.210938 25.601562-21.851563zm335.71875 48.699219c-16.574218 14.992188-83.578124 40.378907-229.128906 40.378907-211.550781 0-243.125-58.699219-243.125-93.695313 0-71.851563 71.96875-103.058594 136.535156-116.640625v59.910156c-25.746093 6.324219-42.667968 21.582032-42.667968 39.492188 0 19.535156 20 36.046875 49.730468 41.089844 12.253907 2.097656 24.773438 2.097656 37.027344 0 29.773438-5.042969 49.773438-21.554688 49.773438-41.089844 0-17.917969-16.917969-33.167969-42.664063-39.492188v-67.855468c59.792969-6.265626 120.152344-4.515626 179.480469 5.203124 78.113281 15.824219 91.964844 29.132813 93.269531 35.664063.792969 3.984375-4.472656 10.238281-14.105469 16.757813-5.902343 3.695312-12.320312 6.492187-19.046874 8.292968-7.417969 2.21875-14.636719 5.050782-21.582032 8.476563-14.941406 7.59375-21.886718 20.238281-18.59375 33.832031 4.046875 16.667969 24.824219 33.433594 56.78125 33.425781h.53125c16.398438-.28125 28.109375 6.058594 32.09375 16.402344 2.863282 6.863281 1.144532 14.789063-4.308594 19.847656zm0 0"></path><path d="m88.566406 369.273438c-26.351562-10.828126-38.5-24.738282-37.152344-42.589844 2.117188-27.921875 27.449219-45.703125 38.246094-52.050782 3.976563-2.429687 5.265625-7.601562 2.902344-11.613281-2.363281-4.015625-7.511719-5.390625-11.5625-3.089843-27.691406 16.289062-44.683594 40.15625-46.601562 65.464843-1.972657 25.816407 14.097656 45.851563 47.699218 59.667969 2.839844 1.253906 6.136719.867188 8.609375-1.011719 2.472657-1.875 3.730469-4.945312 3.285157-8.019531-.445313-3.070312-2.523438-5.660156-5.425782-6.757812zm0 0"></path><path d="m332.800781 230.445312c-18.851562 0-34.132812 15.28125-34.132812 34.132813s15.28125 34.132813 34.132812 34.132813c18.851563 0 34.132813-15.28125 34.132813-34.132813s-15.28125-34.132813-34.132813-34.132813zm0 51.199219c-9.425781 0-17.066406-7.640625-17.066406-17.066406s7.640625-17.066406 17.066406-17.066406 17.066407 7.640625 17.066407 17.066406-7.640626 17.066406-17.066407 17.066406zm0 0"></path></svg>