<!--?xml version="1.0" encoding="iso-8859-1"?-->
<!-- Generator: Adobe Illustrator 19.0.0, SVG Export Plug-In . SVG Version: 6.00 Build 0)  -->
<svg fill="#00815E" xmlns="http://www.w3.org/2000/svg" xmlns:xlink="http://www.w3.org/1999/xlink" version="1.1" id="Layer_1" x="0px" y="0px" viewBox="0 0 512 512" style="enable-background:new 0 0 512 512;" xml:space="preserve" width="512" height="512">
<g>
	<path d="M245.302,460.203h-0.255c-5.562,0-10.071,4.513-10.071,10.078c0,5.565,4.509,10.077,10.071,10.077h0.255   c5.562,0,10.071-4.513,10.071-10.077C255.373,464.716,250.864,460.203,245.302,460.203z"></path>
	<path d="M454.262,312.839c-2.975-0.984-6.039-1.928-9.178-2.835c0.599-44.188,23.328-75.913,39.998-81.425   c4.521-1.494,7.378-5.953,6.849-10.689c-0.529-4.734-4.299-8.452-9.038-8.911c-58.119-5.627-85.501,16.803-98.196,42.166   c-0.017-0.016-0.032-0.033-0.049-0.049c-14.075-13.066-34.648-18.396-61.163-15.843c-4.739,0.457-8.512,4.172-9.043,8.906   c-0.531,4.735,2.324,9.195,6.844,10.691c9.33,3.091,22.246,17.51,25.902,40.973c-6.206-0.216-12.478-0.329-18.799-0.329   c-59.542,0-114.788,9.867-148.48,26.454c-14.209,0.922-28.419,2.365-42.278,4.316v-115.38l90.856-23.149l98.446-25.057   c4.463-1.135,7.588-5.156,7.588-9.766c0.001-4.607-3.123-8.629-7.586-9.767L137.63,94.911v-9.547   c10.401-4.048,17.795-14.166,17.795-25.985c0-15.372-12.501-27.879-27.866-27.879c-15.351,0-27.84,12.507-27.84,27.879   c0,11.815,7.383,21.932,17.769,25.981v17.384v100.31v126.464C52.574,341.396,0,365.233,0,400.696   c0,22.472,21.536,42.12,62.281,56.822c36.631,13.217,86.174,21.376,139.504,22.978c0.103,0.002,0.205,0.004,0.308,0.004   c5.422,0,9.897-4.315,10.06-9.775c0.167-5.564-4.205-10.208-9.765-10.375c-51.261-1.538-98.592-9.277-133.275-21.791   c-30.665-11.064-48.972-25.218-48.972-37.862c0-17.796,35.952-38.872,97.347-50.699v51.465c0,5.566,4.509,10.078,10.071,10.078   c5.561,0,10.071-4.512,10.071-10.078v-54.866c14.132-2.067,29.354-3.663,45.579-4.66c1.385-0.085,2.738-0.455,3.974-1.09   c30.782-15.775,83.569-25.193,141.206-25.193c9.782,0,19.43,0.27,28.868,0.8c0.188,0.018,0.378,0.025,0.569,0.032   c12.216,0.7,24.075,1.834,35.405,3.381c0.207,0.035,0.415,0.067,0.627,0.09c20.004,2.762,38.348,6.811,54.077,12.02   c32.385,10.723,43.924,23.071,43.924,31.052c0,10.496-19.454,25.853-62.913,36.498c-3.249,0.796-5.891,3.153-7.051,6.292   c-6.881,18.61-52.762,42.699-137.237,51.606c-5.532,0.583-9.543,5.543-8.96,11.077c0.583,5.537,5.53,9.556,11.071,8.967   c39.142-4.127,73.961-11.903,100.692-22.49c26.249-10.395,43.376-22.849,51.023-37.078C485.947,405.469,512,386.069,512,363.026   C512,342.701,492.035,325.347,454.262,312.839z M283.616,152.907l-60.097,15.296l-85.888,21.885V115.71L283.616,152.907z    M127.56,51.656c4.259,0,7.725,3.464,7.725,7.723c0,4.258-3.465,7.722-7.725,7.722c-4.245,0-7.698-3.464-7.698-7.722   C119.861,55.12,123.315,51.656,127.56,51.656z M452.304,228.909c-4.53,5.417-8.705,11.724-12.354,18.753   c-8.773,16.904-13.9,36.877-14.857,57.335c-6.519-1.408-13.278-2.67-20.247-3.775c-0.549-11.491-2.703-21.594-6.426-30.272   C406.154,245.914,423.898,232.011,452.304,228.909z M353.258,256.727c7.154,1.801,13.068,4.853,17.691,9.146   c7.743,7.186,12.272,18.139,13.534,32.622c-5.523-0.609-11.142-1.129-16.841-1.556   C365.809,280.807,360.411,267.139,353.258,256.727z"></path>
	<path d="M213.535,374.576c-28.554,0-57.365,8.314-57.365,26.886c0,18.591,28.811,26.913,57.365,26.913   c28.555,0,57.367-8.322,57.367-26.913C270.902,382.891,242.09,374.576,213.535,374.576z M213.535,408.219   c-18.131,0-30.533-3.808-35.5-6.753c4.968-2.938,17.369-6.734,35.5-6.734c18.133,0,30.534,3.797,35.501,6.734   C244.07,404.411,231.669,408.219,213.535,408.219z"></path>
</g>















</svg>
