<svg fill="#fff" id="Capa_1" enable-background="new 0 0 512 512" height="512" viewBox="0 0 512 512" width="512" xmlns="http://www.w3.org/2000/svg"><g><path d="m483.241 333.26c4.143 0 7.5-3.358 7.5-7.5v-300.132c0-14.131-11.497-25.628-25.628-25.628h-190.985c-7.074 0-13.486 2.881-18.128 7.53-4.642-4.649-11.055-7.53-18.128-7.53h-190.985c-14.131 0-25.628 11.497-25.628 25.628v127.291c0 4.142 3.358 7.5 7.5 7.5s7.5-3.358 7.5-7.5v-127.291c0-5.86 4.768-10.628 10.628-10.628h190.985c5.86 0 10.628 4.768 10.628 10.628v429.972c0 5.86-4.768 10.628-10.628 10.628h-190.985c-5.86 0-10.628-4.768-10.628-10.628v-272.681c0-4.142-3.358-7.5-7.5-7.5s-7.5 3.358-7.5 7.5v272.681c0 14.131 11.497 25.628 25.628 25.628h4.534v14.801c0 8.806 7.164 15.971 15.97 15.971h20.684c8.807 0 15.971-7.165 15.971-15.971v-14.801h76.668v14.801c0 8.806 7.164 15.971 15.971 15.971h20.684c8.807 0 15.971-7.165 15.971-15.971v-14.801h4.533c7.073 0 13.486-2.881 18.128-7.53 4.642 4.649 11.055 7.53 18.128 7.53h4.533v14.801c0 8.806 7.164 15.971 15.971 15.971h20.685c8.806 0 15.97-7.165 15.97-15.971v-14.801h76.669v14.801c0 8.806 7.164 15.971 15.971 15.971h20.684c8.807 0 15.971-7.165 15.971-15.971v-14.801h4.533c14.131 0 25.628-11.497 25.628-25.628v-99.84c0-4.142-3.357-7.5-7.5-7.5s-7.5 3.358-7.5 7.5v99.84c0 5.86-4.768 10.628-10.628 10.628h-190.988c-5.86 0-10.628-4.768-10.628-10.628v-429.972c0-5.86 4.768-10.628 10.628-10.628h190.985c5.86 0 10.628 4.768 10.628 10.628v300.132c0 4.142 3.357 7.5 7.5 7.5zm-394.195 162.769c0 .535-.435.971-.971.971h-20.684c-.535 0-.97-.435-.97-.971v-14.801h22.625zm129.293 0c0 .535-.436.971-.971.971h-20.684c-.535 0-.971-.435-.971-.971v-14.801h22.625v14.801zm227.241-14.801v14.801c0 .535-.436.971-.971.971h-20.684c-.535 0-.971-.435-.971-.971v-14.801zm-129.294 0v14.801c0 .535-.435.971-.97.971h-20.685c-.535 0-.971-.435-.971-.971v-14.801z"></path><path d="m93.095 60.862h3.45 94.292c4.143 0 7.5-3.358 7.5-7.5s-3.357-7.5-7.5-7.5h-94.291-3.45c-4.143 0-7.5 3.358-7.5 7.5s3.357 7.5 7.499 7.5z"></path><path d="m93.095 97.186h97.742c4.143 0 7.5-3.358 7.5-7.5s-3.357-7.5-7.5-7.5h-97.742c-4.143 0-7.5 3.358-7.5 7.5s3.358 7.5 7.5 7.5z"></path><path d="m93.095 391.814h3.45 94.292 3.45c4.143 0 7.5-3.358 7.5-7.5s-3.357-7.5-7.5-7.5h-3.45-94.291-3.45c-4.143 0-7.5 3.358-7.5 7.5s3.357 7.5 7.499 7.5z"></path><path d="m93.095 428.138h97.742c4.143 0 7.5-3.358 7.5-7.5s-3.357-7.5-7.5-7.5h-97.742c-4.143 0-7.5 3.358-7.5 7.5s3.358 7.5 7.5 7.5z"></path><path d="m77.13 259.159v-21.628c0-4.142-3.358-7.5-7.5-7.5s-7.5 3.358-7.5 7.5v21.628c0 4.142 3.358 7.5 7.5 7.5s7.5-3.358 7.5-7.5z"></path><path d="m114.697 177.754h54.54c16.046 0 29.101-13.055 29.101-29.101s-13.055-29.101-29.101-29.101h-54.54c-16.047 0-29.102 13.055-29.102 29.101s13.055 29.101 29.102 29.101zm0-43.202h54.54c7.775 0 14.101 6.326 14.101 14.101s-6.325 14.101-14.101 14.101h-54.54c-7.775 0-14.102-6.326-14.102-14.101s6.327-14.101 14.102-14.101z"></path><path d="m325.758 60.862h3.449 94.293c4.143 0 7.5-3.358 7.5-7.5s-3.357-7.5-7.5-7.5h-94.293-3.449c-4.143 0-7.5 3.358-7.5 7.5s3.357 7.5 7.5 7.5z"></path><path d="m325.758 97.186h97.742c4.143 0 7.5-3.358 7.5-7.5s-3.357-7.5-7.5-7.5h-97.742c-4.143 0-7.5 3.358-7.5 7.5s3.357 7.5 7.5 7.5z"></path><path d="m434.449 384.314c0-4.142-3.357-7.5-7.5-7.5h-3.449-94.293-3.449c-4.143 0-7.5 3.358-7.5 7.5s3.357 7.5 7.5 7.5h3.449 94.293 3.449c4.143 0 7.5-3.358 7.5-7.5z"></path><path d="m325.758 413.138c-4.143 0-7.5 3.358-7.5 7.5s3.357 7.5 7.5 7.5h97.742c4.143 0 7.5-3.358 7.5-7.5s-3.357-7.5-7.5-7.5z"></path><path d="m294.792 237.532v21.628c0 4.142 3.357 7.5 7.5 7.5s7.5-3.358 7.5-7.5v-21.628c0-4.142-3.357-7.5-7.5-7.5s-7.5 3.358-7.5 7.5z"></path><path d="m347.358 177.754h54.54c16.047 0 29.102-13.055 29.102-29.101s-13.055-29.101-29.102-29.101h-54.54c-16.046 0-29.101 13.055-29.101 29.101s13.055 29.101 29.101 29.101zm0-43.202h54.54c7.775 0 14.102 6.326 14.102 14.101s-6.326 14.101-14.102 14.101h-54.54c-7.775 0-14.101-6.326-14.101-14.101.001-7.775 6.326-14.101 14.101-14.101z"></path></g></svg>