<svg fill="#fff" id="line_expanded" height="512" viewBox="0 0 16 16" width="512" xmlns="http://www.w3.org/2000/svg"><g><path d="m10.5 2c-.827 0-1.5.673-1.5 1.5s.673 1.5 1.5 1.5c1.208 0 2.217.86 2.45 2h-2.45c-.827 0-1.5.673-1.5 1.5v4c0 .827.673 1.5 1.5 1.5h4c.827 0 1.5-.673 1.5-1.5v-5c0-3.033-2.467-5.5-5.5-5.5zm4.5 10.5c0 .276-.224.5-.5.5h-4c-.276 0-.5-.224-.5-.5v-4c0-.276.224-.5.5-.5h3c.276 0 .5-.224.5-.5 0-1.93-1.57-3.5-3.5-3.5-.276 0-.5-.224-.5-.5s.224-.5.5-.5c2.481 0 4.5 2.019 4.5 4.5z"></path><path d="m1.5 2c-.827 0-1.5.673-1.5 1.5s.673 1.5 1.5 1.5c1.208 0 2.217.86 2.45 2h-2.45c-.827 0-1.5.673-1.5 1.5v4c0 .827.673 1.5 1.5 1.5h2c.276 0 .5-.224.5-.5s-.224-.5-.5-.5h-2c-.276 0-.5-.224-.5-.5v-4c0-.276.224-.5.5-.5h3c.276 0 .5-.224.5-.5 0-1.93-1.57-3.5-3.5-3.5-.276 0-.5-.224-.5-.5s.224-.5.5-.5c2.481 0 4.5 2.019 4.5 4.5v5c0 .276-.224.5-.5.5s-.5.224-.5.5.224.5.5.5c.827 0 1.5-.673 1.5-1.5v-5c0-3.033-2.467-5.5-5.5-5.5z"></path></g></svg>