<!--?xml version="1.0"?-->
<svg fill="#fff" xmlns="http://www.w3.org/2000/svg" viewBox="0 0 64 64" width="512" height="512"><g id="_17-restaurant" data-name="17-restaurant"><path d="M63.4,4.519a2.208,2.208,0,0,0-2.475-.412L47.862,9.9c-.075.034-.147.073-.222.107a26.927,26.927,0,0,0-30.286-.673L13.026,5.005a2.524,2.524,0,0,0-1.773-.747,2.341,2.341,0,0,0-1.785.725,2.52,2.52,0,0,0,.023,3.558l7.591,7.591-.707.707L8.783,9.248a2.518,2.518,0,0,0-3.557-.021A2.466,2.466,0,0,0,4.5,11.01a2.525,2.525,0,0,0,.748,1.773l7.591,7.591-.707.708L4.541,13.49a2.52,2.52,0,0,0-3.558-.021A2.521,2.521,0,0,0,1,17.026L6.66,22.681A26.978,26.978,0,0,0,11.535,49.6L7.062,54.074a3.988,3.988,0,0,0-1.183,2.575,3.3,3.3,0,0,0,3.333,3.565c.075,0,.15,0,.225-.007a3.993,3.993,0,0,0,2.575-1.183l4.751-4.751a26.914,26.914,0,0,0,29.312.752l4.646,4.646a3.561,3.561,0,0,0,2.49,1.051h.038a3.454,3.454,0,0,0,2.459-1.015,3.531,3.531,0,0,0-.037-4.985l-4.116-4.116a26.941,26.941,0,0,0,2.716-33.84l9.015-9.015A2.293,2.293,0,0,0,63.4,4.519ZM32,7a24.79,24.79,0,0,1,13.617,4.048,25.1,25.1,0,0,0-4.4,3.207,19.94,19.94,0,0,0-18.758.179L18.8,10.783A24.854,24.854,0,0,1,32,7ZM2.4,14.883a.421.421,0,0,1,.351-.141.547.547,0,0,1,.378.162l8.3,8.3a1.029,1.029,0,0,0,1.414,0l2.121-2.122a1,1,0,0,0,0-1.414l-8.3-8.3A.539.539,0,0,1,6.5,10.99a.491.491,0,0,1,.14-.349.517.517,0,0,1,.35-.141.548.548,0,0,1,.379.162l8.3,8.3a1,1,0,0,0,1.415,0L19.2,16.839a1,1,0,0,0,0-1.414l-8.3-8.3a.518.518,0,0,1-.022-.73.511.511,0,0,1,.35-.14.544.544,0,0,1,.379.162L27.125,21.933a4.125,4.125,0,0,1,1.223,2.89,3.923,3.923,0,0,1-1.15,2.839,1,1,0,0,0,0,1.414l1.3,1.306,1.414-1.414-.657-.657A5.932,5.932,0,0,0,30.348,24.8a6.118,6.118,0,0,0-1.808-4.284l-4.61-4.61a18.021,18.021,0,0,1,15.783-.176,24.445,24.445,0,0,0-6.151,11.843L17.934,43.2A17.963,17.963,0,0,1,14,32a18.387,18.387,0,0,1,.1-1.879l2.419,2.419a6.135,6.135,0,0,0,4.345,1.806A5.962,5.962,0,0,0,24.31,33.26l.582.582,1.414-1.414L25.077,31.2a1,1,0,0,0-1.414,0,4.06,4.06,0,0,1-5.73-.072L2.42,15.613A.519.519,0,0,1,2.4,14.883ZM7,32a24.93,24.93,0,0,1,1.245-7.734l4.093,4.093a19.885,19.885,0,0,0,4.175,16.265l-3.546,3.545A24.9,24.9,0,0,1,7,32ZM32,57a24.8,24.8,0,0,1-13.794-4.169l3.621-3.622a19.939,19.939,0,0,0,19.109.677L44.62,53.57A24.9,24.9,0,0,1,32,57Zm22.292,1.293a1.525,1.525,0,0,1-2.157-.036L33.819,39.941l-1.414,1.414,7.033,7.033a17.966,17.966,0,0,1-16.149-.641L47.751,23.286a17.954,17.954,0,0,1-2.572,20.943l-7.8-7.8-1.414,1.414L54.257,56.136A1.528,1.528,0,0,1,54.292,58.293ZM57,32a24.8,24.8,0,0,1-6.859,17.192l-3.548-3.549a19.922,19.922,0,0,0,2.616-23.815l3.622-3.622A24.789,24.789,0,0,1,57,32ZM61.872,6.337,10.6,57.61a1.685,1.685,0,0,1-2.348.226,1.365,1.365,0,0,1-.375-1.066,2,2,0,0,1,.6-1.282L35.193,28.772a1,1,0,0,0,.276-.526,22.939,22.939,0,0,1,13.2-16.518L61.73,5.936a.249.249,0,0,1,.25,0C62.039,5.991,62.025,6.183,61.872,6.337Z"></path></g></svg>
