<svg fill="#00815E" id="Capa_1" enable-background="new 0 0 511.992 511.992" height="512" viewBox="0 0 511.992 511.992" width="512" xmlns="http://www.w3.org/2000/svg"><g><g><circle cx="255.996" cy="323.127" r="8.212"></circle><circle cx="190.298" cy="257.429" r="8.212"></circle><path d="m202.887 279.43c-1.733-4.188-6.537-6.184-10.733-4.443-4.188 1.733-6.184 6.537-4.443 10.733 1.733 4.188 6.537 6.184 10.733 4.443 4.189-1.741 6.176-6.545 4.443-10.733z"></path><path d="m203.733 298.079c-3.211 3.211-3.211 8.409 0 11.612 3.211 3.211 8.409 3.211 11.612 0 3.211-3.211 3.211-8.409 0-11.612-3.202-3.211-8.401-3.211-11.612 0z"></path><path d="m233.995 310.537c-4.188-1.733-8.992.255-10.733 4.443-1.733 4.188.255 8.992 4.443 10.733 4.188 1.733 8.992-.255 10.733-4.443s-.254-8.992-4.443-10.733z"></path><circle cx="255.996" cy="290.278" r="8.212"></circle><circle cx="223.147" cy="257.429" r="8.212"></circle><path d="m226.957 274.847c-3.211 3.211-3.211 8.409 0 11.612 3.211 3.211 8.409 3.211 11.612 0 3.211-3.211 3.211-8.409 0-11.612-3.202-3.203-8.401-3.203-11.612 0z"></path><path d="m362.755 257.429c0-32.077-14.289-60.82-36.75-80.406l24.875-91.189-60.409 30.205-34.475-34.467-34.467 34.467-60.409-30.205 24.875 91.189c-22.469 19.586-36.758 48.329-36.758 80.406 0 58.865 47.894 106.759 106.759 106.759s106.759-47.894 106.759-106.759zm-176.12-140.479 38.138 19.069 31.223-31.223 31.231 31.231 38.138-19.069-13.534 49.651c-16.268-10.035-35.345-15.932-55.827-15.932s-39.558 5.896-55.827 15.932zm-20.974 140.479c0-49.807 40.527-90.335 90.335-90.335s90.335 40.527 90.335 90.335-40.527 90.335-90.335 90.335-90.335-40.528-90.335-90.335z"></path><path d="m313.482 257.429h16.424c0-40.757-33.153-73.91-73.91-73.91v16.424c31.691 0 57.486 25.787 57.486 57.486z"></path><path d="m510.575 121.204v-3.4c0-8.771-3.416-17.024-9.625-23.224-6.2-6.2-14.445-9.617-23.208-9.617-.008 0-.016 0-.025 0h-3.392l-37.661 37.661v-53.682h-22.066c-52.903 0-107.276-22.731-153.117-63.99l-5.485-4.952-5.494 4.952c-45.832 41.258-100.206 63.99-153.109 63.99h-22.066v53.683l-37.662-37.661h-3.392c-.008 0-.016 0-.025 0-8.762 0-17.008 3.416-23.208 9.617-6.208 6.192-9.625 14.445-9.625 23.224v3.4l80.02 80.02c12.786 68.843 45.57 132.545 93.685 182.936l-37.16 37.169c-3.063 3.071-8.007 3.227-11.267.328l-68.119-60.558-44.946 44.946c-7.761 7.761-12.212 18.502-12.212 29.49 0 14.56 7.761 28.258 20.251 35.756l57.387 34.442c6.816 4.09 14.618 6.258 22.575 6.258 11.719 0 22.731-4.566 31.009-12.844l23.273-23.273c22.419 12.212 59.711 19.701 100.083 19.701s77.663-7.49 100.083-19.701l23.273 23.273c8.286 8.286 19.307 12.844 31.018 12.844 7.949 0 15.751-2.168 22.567-6.258l57.395-34.442c12.491-7.49 20.243-21.196 20.243-35.756 0-10.988-4.451-21.73-12.212-29.498l-44.946-44.946-68.129 60.557c-3.252 2.899-8.179 2.735-11.251-.328l-37.169-37.169c48.116-50.39 80.891-114.084 93.685-182.928zm-29.736-19.528c3.203.608 6.151 2.16 8.5 4.517 2.357 2.357 3.917 5.305 4.525 8.5l-59.391 59.399c.985-9.247 1.61-18.551 1.872-27.913zm-389.088-16.31h5.642c54.85 0 110.914-22.452 158.603-63.382 47.697 40.922 103.762 63.382 158.603 63.382h5.642v51.047c0 118.913-62.799 230.394-164.245 292.117-101.446-61.731-164.245-173.203-164.245-292.125zm-73.622 29.326c.616-3.203 2.168-6.143 4.525-8.5s5.305-3.909 8.5-4.517l44.502 44.502c.263 9.362.879 18.666 1.872 27.913zm-.288 320.844c0-6.668 2.694-13.172 7.399-17.886l33.99-33.99 45.816 40.716-42.695 52.189-32.233-19.348c-7.571-4.55-12.277-12.853-12.277-21.681zm103.187 52c-8.705 8.705-22.97 10.446-33.522 4.123l-10.922-6.553 40.872-49.955c9.707 7.26 23.405 6.488 32.11-2.209l37.21-37.21c4.443 4.246 8.976 8.393 13.649 12.417zm134.968-8.377c-34.697 0-67.595-5.929-87.92-15.439l44.987-44.987c12.244 9.592 25.179 18.436 38.762 26.435l4.172 2.455 4.172-2.455c13.583-7.999 26.517-16.843 38.77-26.443l44.987 44.987c-20.335 9.518-53.233 15.447-87.93 15.447zm230.755-61.509c4.706 4.714 7.399 11.226 7.399 17.886 0 8.82-4.697 17.131-12.269 21.68l-32.241 19.348-42.695-52.181 45.816-40.716zm-92.215 17.5 40.872 49.955-10.922 6.553c-10.561 6.323-24.826 4.574-33.522-4.123l-79.388-79.396c4.673-4.024 9.198-8.171 13.641-12.417l37.21 37.21c8.713 8.722 22.419 9.486 32.109 2.218z"></path></g></g></svg>