<svg fill="#00815E" id="Layer_1" enable-background="new 0 0 64 64" height="512" viewBox="0 0 64 64" width="512" xmlns="http://www.w3.org/2000/svg"><g><path d="m53.737 39.159-3.296-1.066-2.886-1.924c-.299-.199-.681-.223-1.002-.062l-.885.442-.837-3.347c1.952-1.912 3.507-4.433 3.992-7.318 1.726-.478 2.801-2.299 3.112-4.094.076-.493.097-.998-.009-1.566-.131-.71-.425-1.129-.926-1.485v-4.739c0-7.72-6.28-14-14-14s-14 6.28-14 14v4.74c-.491.348-.793.765-.926 1.485-.106.567-.085 1.073-.009 1.566.31 1.789 1.38 3.609 3.104 4.091.482 2.968 2.061 5.45 4.002 7.313l-.839 3.354-.885-.443c-.321-.161-.704-.137-1.002.062l-2.995 1.997c-.604.158-1.564.468-3.188.995-5.019 1.625-8.262 5.807-8.262 10.652v13.188c0 .553.448 1 1 1s1-.447 1-1v-2h8v2c0 .553.448 1 1 1s1-.447 1-1v-9c0-.553-.448-1-1-1s-1 .447-1 1v5h-8v-9.188c0-3.961 2.7-7.396 6.879-8.75 1.548-.501 2.383-.771 2.847-.921l6.567 6.567c.422.423 1.117.381 1.488-.082l3.146-3.932 1.073 1.609v7.697c0 .553.448 1 1 1s1-.447 1-1v-7.697l1.073-1.61 3.146 3.933c.37.462 1.066.505 1.488.082l6.568-6.568 2.847.921c4.178 1.353 6.878 4.788 6.878 8.751v9.188h-8v-5c0-.553-.448-1-1-1s-1 .447-1 1v9c0 .553.448 1 1 1s1-.447 1-1v-2h8v2c0 .553.448 1 1 1s1-.447 1-1v-13.188c0-4.847-3.243-9.029-8.263-10.653zm-3.847-18.775c.136.327.128.748.07 1.095-.121.722-.438 1.487-.96 2.017v-2.922c.192-.095.73-.331.89-.19zm-.89-1.933c-.204.052-.438.104-.913.344-.307-.274-.518-.547-.715-.95.601-.391 1.153-.837 1.628-1.275zm-5-1.451h-14c-1.488 0-3.168-1.38-4.263-2.517 1.966-.569 5.948-1.483 11.263-1.483s9.297.914 11.263 1.483c-1.095 1.137-2.775 2.517-4.263 2.517zm-7-15c6.137 0 11.205 4.633 11.909 10.584-2.072-.613-6.243-1.584-11.909-1.584s-9.837.971-11.909 1.584c.704-5.951 5.772-10.584 11.909-10.584zm-12 21.497c-.521-.529-.838-1.293-.96-2.017-.058-.346-.067-.769.07-1.095.16-.142.7.096.89.19zm.913-4.703c-.469-.237-.736-.299-.913-.344v-1.881c.475.438 1.027.884 1.628 1.275-.18.368-.382.653-.715.95zm1.087 1.698c.35-.28.667-.586.985-1.025.17-.231.307-.485.434-.743.513.169 1.042.276 1.581.276h14c.539 0 1.068-.107 1.581-.276.127.258.263.513.434.743.321.443.638.747.985 1.025v3.508c0 6.082-6.137 11-10 11-3.423 0-10-4.645-10-11zm3.261 16.586.616-2.465c2.139 1.539 4.442 2.387 6.123 2.387 1.851 0 4.09-.864 6.131-2.355l.608 2.433c.032.128.076.252.123.373l-5.309 2.654c-.061.031-.337.268-.385.34l-1.168 1.752-1.168-1.752c-.036-.053-.312-.303-.385-.34l-5.309-2.655c.048-.12.091-.244.123-.372zm.656 7.425-5.347-5.348 1.502-1.001 6.375 3.187zm12.166.001-2.529-3.162 6.375-3.187 1.502 1.001z"></path><path d="m47 55h-6c-.552 0-1 .447-1 1s.448 1 1 1h6c.552 0 1-.447 1-1s-.448-1-1-1z"></path><path d="m9 13.278v-2.278c0-.807 1.858-1.504 3.351-2.063 2.179-.818 4.649-1.744 4.649-3.937 0-1.668-2.594-5-6-5-2.205 0-9 3.149-9 7 0 1.922.714 3.154 1.287 4.145.399.687.713 1.23.713 1.855v.278c-.595.347-1 .985-1 1.722v1c0 .737.405 1.375 1 1.722v45.278c0 .553.448 1 1 1s1-.447 1-1v-9h1v9c0 .553.448 1 1 1s1-.447 1-1v-45.278c.595-.347 1-.985 1-1.722v-1c0-.737-.405-1.375-1-1.722zm-4 2.722v-1h3v1zm6-14c2.334 0 3.946 2.388 4 3 0 .807-1.858 1.504-3.351 2.063-2.179.818-4.649 1.744-4.649 3.937v2h-1c0-1.163-.499-2.024-.982-2.858-.523-.904-1.018-1.757-1.018-3.142 0-2.224 5.385-5 7-5zm-5 50v-34h1v34z"></path><path d="m6.447 7.895 6-3c.494-.247.694-.848.447-1.342s-.848-.693-1.342-.447l-6 3c-.493.247-.694.847-.447 1.341.245.49.843.695 1.342.448z"></path></g></svg>